<?xml version="1.0" standalone="no"?>
<!DOCTYPE svg PUBLIC "-//W3C//DTD SVG 20010904//EN"
 "http://www.w3.org/TR/2001/REC-SVG-20010904/DTD/svg10.dtd">
<svg version="1.0" xmlns="http://www.w3.org/2000/svg"
 width="200.000000pt" height="200.000000pt" viewBox="0 0 200.000000 200.000000"
 preserveAspectRatio="xMidYMid meet">
<metadata>
Created by potrace 1.15, written by Peter Selinger 2001-2017
</metadata>
<g transform="translate(0.000000,200.000000) scale(0.100000,-0.100000)"
fill="#000000" stroke="none">
<path d="M575 1471 c-19 -39 -31 -51 -55 -55 -16 -3 -44 -9 -61 -12 l-31 -6
42 -43 42 -43 -7 -61 -7 -62 57 28 57 28 50 -28 c28 -16 51 -27 53 -25 2 2 -2
29 -7 61 l-10 59 42 43 42 43 -31 6 c-17 3 -45 9 -62 12 -26 5 -35 15 -52 55
-12 27 -25 49 -29 49 -4 0 -19 -22 -33 -49z"/>
<path d="M1240 1467 c-170 -58 -284 -176 -334 -346 -20 -67 -21 -198 -2 -267
31 -117 118 -237 216 -299 150 -95 372 -102 520 -17 52 29 130 91 130 102 0 4
-35 10 -77 12 -141 9 -277 82 -364 195 -67 87 -91 157 -97 275 -5 121 18 206
82 302 l44 66 -26 0 c-15 0 -56 -11 -92 -23z"/>
<path d="M325 1040 c-16 -35 -22 -40 -50 -40 -45 0 -49 -10 -19 -41 23 -24 26
-33 20 -68 -7 -46 -1 -49 44 -26 27 14 33 14 60 0 43 -22 48 -19 40 25 -6 35
-4 42 21 66 34 32 30 44 -15 44 -29 0 -35 5 -51 40 -10 22 -21 40 -25 40 -4 0
-15 -18 -25 -40z"/>
</g>
</svg>
