<?xml version="1.0" standalone="no"?>
<!DOCTYPE svg PUBLIC "-//W3C//DTD SVG 20010904//EN"
 "http://www.w3.org/TR/2001/REC-SVG-20010904/DTD/svg10.dtd">
<svg version="1.0" xmlns="http://www.w3.org/2000/svg"
 width="200.000000pt" height="200.000000pt" viewBox="0 0 200.000000 200.000000"
 preserveAspectRatio="xMidYMid meet">
<metadata>
Created by potrace 1.15, written by Peter Selinger 2001-2017
</metadata>
<g transform="translate(0.000000,200.000000) scale(0.100000,-0.100000)"
fill="#000000" stroke="none">
<path d="M662 1770 c-116 -42 -216 -148 -253 -270 -15 -52 -29 -75 -64 -108
-68 -64 -99 -132 -99 -217 0 -120 63 -221 169 -271 42 -20 66 -24 149 -24 l99
0 -18 -20 c-19 -21 -18 -22 33 -73 l52 -52 52 52 c51 51 52 52 33 73 l-18 20
360 0 c423 0 425 0 514 89 69 69 93 132 87 224 -9 147 -116 255 -277 280 l-68
11 -28 54 c-51 97 -161 162 -276 162 -36 0 -60 8 -105 35 -32 19 -74 40 -94
45 -59 17 -189 11 -248 -10z m205 -103 c28 -7 75 -31 104 -53 51 -37 57 -39
129 -39 61 0 82 -4 113 -24 51 -31 85 -84 98 -154 12 -59 12 -59 43 -53 86 16
105 17 144 7 47 -13 106 -60 128 -102 20 -40 18 -118 -5 -155 -23 -38 -74 -77
-120 -93 -24 -8 -181 -11 -515 -11 -448 0 -484 2 -522 19 -95 43 -132 157 -80
245 14 24 45 56 70 72 39 25 44 32 49 75 15 123 110 234 227 265 59 16 76 17
137 1z"/>
<path d="M1205 780 l-50 -50 53 -53 52 -52 52 52 53 53 -50 50 c-27 27 -52 50
-55 50 -3 0 -28 -23 -55 -50z"/>
<path d="M927 713 c-11 -3 -31 -31 -48 -66 -46 -98 -35 -142 33 -135 29 3 36
10 60 58 34 69 36 113 6 134 -12 9 -25 15 -28 15 -3 -1 -13 -3 -23 -6z"/>
<path d="M603 658 c-24 -38 -53 -114 -53 -137 0 -16 9 -36 20 -46 33 -30 69
-10 102 55 44 89 34 140 -27 140 -18 0 -37 -6 -42 -12z"/>
<path d="M1133 538 c-24 -38 -53 -114 -53 -137 0 -40 33 -67 68 -55 50 18 102
160 70 192 -16 16 -75 15 -85 0z"/>
<path d="M767 362 c-26 -26 -47 -52 -47 -58 0 -13 83 -94 96 -94 5 0 31 22 57
48 l47 48 -53 52 -53 52 -47 -48z"/>
</g>
</svg>
