<?xml version="1.0" standalone="no"?>
<!DOCTYPE svg PUBLIC "-//W3C//DTD SVG 20010904//EN"
 "http://www.w3.org/TR/2001/REC-SVG-20010904/DTD/svg10.dtd">
<svg version="1.0" xmlns="http://www.w3.org/2000/svg"
 width="200.000000pt" height="200.000000pt" viewBox="0 0 200.000000 200.000000"
 preserveAspectRatio="xMidYMid meet">
<metadata>
Created by potrace 1.15, written by Peter Selinger 2001-2017
</metadata>
<g transform="translate(0.000000,200.000000) scale(0.100000,-0.100000)"
fill="#000000" stroke="none">
<path d="M1217 1893 c-4 -3 -7 -50 -7 -104 0 -98 0 -99 27 -105 48 -12 58 4
61 101 2 55 -1 92 -9 101 -12 14 -60 19 -72 7z"/>
<path d="M882 1748 c-23 -23 -11 -53 45 -110 62 -63 92 -72 117 -37 19 28 12
45 -48 107 -51 53 -88 66 -114 40z"/>
<path d="M1507 1701 c-60 -62 -63 -70 -47 -102 19 -34 57 -23 115 32 60 57 71
79 55 109 -21 39 -61 26 -123 -39z"/>
<path d="M1212 1598 c-75 -13 -147 -72 -167 -136 l-7 -24 -21 21 c-12 11 -49
32 -82 48 -52 24 -72 28 -155 28 -86 0 -101 -3 -162 -32 -118 -55 -190 -139
-229 -265 -15 -47 -29 -69 -64 -100 -173 -152 -110 -437 111 -503 44 -13 126
-15 560 -13 l509 3 53 24 c69 31 145 114 167 182 37 110 -2 242 -92 316 -49
41 -129 73 -179 73 l-35 0 19 28 c59 84 55 197 -9 275 -53 64 -129 91 -217 75z
m-372 -179 c31 -7 72 -27 108 -53 56 -41 59 -42 119 -38 116 8 200 -59 224
-180 l12 -60 36 8 c108 23 188 0 245 -69 23 -29 31 -49 34 -95 5 -68 -17 -108
-86 -157 l-44 -30 -496 -3 c-554 -3 -553 -3 -611 64 -78 89 -52 213 59 276 33
19 40 28 40 55 0 49 36 135 75 181 43 49 94 82 155 98 58 16 68 16 130 3z"/>
<path d="M1560 1411 c-30 -58 -1 -81 104 -81 89 0 106 8 106 50 0 43 -17 50
-112 50 -76 0 -89 -2 -98 -19z"/>
<path d="M723 533 c-15 -6 -17 -51 -3 -73 8 -12 3 -16 -22 -20 -63 -10 -63
-70 0 -80 25 -4 30 -8 22 -20 -18 -28 -12 -68 12 -76 16 -5 27 0 45 20 l23 27
23 -27 c39 -45 82 -11 60 47 -11 27 -10 29 16 29 33 0 51 16 51 46 0 24 -17
34 -56 34 -21 0 -23 3 -14 19 32 61 -14 107 -57 56 l-24 -27 -20 26 c-20 26
-32 29 -56 19z"/>
<path d="M1147 363 c-10 -10 -8 -56 3 -73 8 -12 2 -16 -28 -20 -33 -5 -37 -8
-37 -35 0 -27 3 -30 38 -33 34 -3 36 -5 26 -23 -5 -11 -9 -32 -7 -47 4 -37 44
-43 70 -10 l18 23 18 -23 c26 -33 66 -27 70 10 2 15 -2 36 -7 47 -10 18 -8 20
26 23 35 3 38 6 38 33 0 27 -3 30 -38 33 -34 3 -36 5 -26 23 5 11 9 32 7 47
-4 37 -49 43 -73 10 l-16 -23 -16 23 c-15 21 -52 30 -66 15z"/>
</g>
</svg>
