<?xml version="1.0" standalone="no"?>
<!DOCTYPE svg PUBLIC "-//W3C//DTD SVG 20010904//EN"
 "http://www.w3.org/TR/2001/REC-SVG-20010904/DTD/svg10.dtd">
<svg version="1.0" xmlns="http://www.w3.org/2000/svg"
 width="200.000000pt" height="200.000000pt" viewBox="0 0 200.000000 200.000000"
 preserveAspectRatio="xMidYMid meet">
<metadata>
Created by potrace 1.15, written by Peter Selinger 2001-2017
</metadata>
<g transform="translate(0.000000,200.000000) scale(0.100000,-0.100000)"
fill="#000000" stroke="none">
<path d="M1222 1878 c-8 -8 -12 -43 -12 -99 0 -96 9 -113 57 -107 l28 3 0 105
0 105 -30 3 c-17 2 -36 -3 -43 -10z"/>
<path d="M886 1728 c-9 -12 -16 -26 -16 -31 0 -5 25 -35 57 -68 57 -60 94 -74
121 -47 24 24 12 54 -46 111 -63 62 -91 71 -116 35z"/>
<path d="M1512 1686 c-34 -35 -62 -67 -62 -71 0 -22 24 -45 48 -45 19 0 43 16
84 57 58 57 70 87 46 111 -25 25 -55 12 -116 -52z"/>
<path d="M1164 1576 c-39 -17 -103 -83 -110 -113 -4 -13 -9 -23 -12 -23 -3 0
-26 13 -51 29 -118 75 -268 79 -403 10 -91 -46 -188 -180 -204 -281 -4 -21
-10 -38 -14 -38 -18 0 -95 -89 -116 -135 -29 -60 -32 -149 -8 -218 20 -60 84
-131 148 -165 l51 -27 272 -3 c263 -3 273 -4 263 -22 -14 -26 -13 -73 2 -88
18 -18 63 -15 81 6 8 9 23 36 32 59 l16 41 197 4 c178 3 202 5 245 25 77 36
123 78 156 145 36 71 41 154 15 231 -33 97 -143 183 -248 194 l-54 6 24 35
c32 47 37 70 32 145 -4 72 -34 123 -95 165 -31 22 -51 27 -113 29 -48 2 -86
-2 -106 -11z m-262 -187 c13 -6 41 -26 63 -43 36 -29 45 -31 116 -31 70 0 81
-3 121 -30 52 -38 87 -97 95 -165 5 -40 9 -49 22 -46 9 3 36 10 60 16 134 35
279 -97 242 -221 -16 -52 -75 -111 -127 -127 -30 -9 -173 -12 -528 -12 -458 0
-489 1 -524 19 -84 43 -123 135 -91 218 12 34 64 89 100 108 21 11 28 24 33
60 13 98 86 204 170 247 71 36 186 40 248 7z"/>
<path d="M1572 1408 c-7 -7 -12 -24 -12 -38 0 -42 17 -50 110 -50 91 0 110 8
110 46 0 42 -25 54 -114 54 -50 0 -87 -5 -94 -12z"/>
<path d="M753 442 c-18 -11 -63 -114 -63 -144 0 -51 60 -78 92 -40 22 24 58
110 58 138 0 42 -51 69 -87 46z"/>
<path d="M1069 255 c-34 -76 -36 -105 -9 -130 34 -30 70 -11 102 55 29 59 35
109 16 128 -7 7 -27 12 -46 12 -31 0 -35 -4 -63 -65z"/>
</g>
</svg>
