<?xml version="1.0" standalone="no"?>
<!DOCTYPE svg PUBLIC "-//W3C//DTD SVG 20010904//EN"
 "http://www.w3.org/TR/2001/REC-SVG-20010904/DTD/svg10.dtd">
<svg version="1.0" xmlns="http://www.w3.org/2000/svg"
 width="200.000000pt" height="200.000000pt" viewBox="0 0 200.000000 200.000000"
 preserveAspectRatio="xMidYMid meet">
<metadata>
Created by potrace 1.15, written by Peter Selinger 2001-2017
</metadata>
<g transform="translate(0.000000,200.000000) scale(0.100000,-0.100000)"
fill="#000000" stroke="none">
<path d="M1259 1941 c-123 -39 -229 -124 -294 -235 -37 -63 -65 -166 -65 -239
0 -51 -2 -58 -17 -53 -49 14 -115 17 -168 7 -160 -30 -286 -142 -336 -300 -14
-45 -29 -70 -63 -101 -25 -23 -57 -66 -72 -96 -24 -49 -26 -63 -22 -137 5 -93
19 -127 81 -194 65 -71 104 -86 227 -91 117 -4 156 -13 95 -21 -32 -5 -41 -11
-43 -29 -5 -30 14 -52 44 -52 27 0 28 -3 13 -31 -26 -50 27 -85 66 -43 l23 25
26 -26 c21 -21 29 -24 46 -15 22 12 26 40 10 71 -9 16 -7 19 10 19 31 0 60 18
60 38 0 26 -20 42 -54 42 -19 0 -27 3 -20 10 5 5 157 10 364 12 350 3 356 3
402 27 104 51 168 142 176 251 5 82 -9 137 -53 195 -19 25 -31 45 -26 45 13 0
111 79 111 89 0 4 -37 11 -82 14 -148 9 -275 79 -362 197 -65 88 -88 156 -94
272 -5 121 18 206 82 302 l44 66 -26 -1 c-15 0 -52 -8 -83 -18z m-389 -642
c21 -7 61 -29 89 -50 49 -37 54 -39 106 -33 113 14 213 -62 236 -177 13 -64
12 -64 79 -48 55 13 124 -2 172 -37 112 -83 102 -240 -20 -311 l-47 -28 -482
-3 c-340 -2 -495 0 -525 9 -58 15 -122 80 -138 139 -21 77 12 139 118 222 12
10 22 29 22 43 0 13 10 50 22 82 27 73 113 163 178 186 54 19 138 21 190 6z"/>
<path d="M587 1875 c-24 -49 -29 -54 -69 -60 -85 -13 -85 -12 -38 -60 42 -43
42 -43 36 -99 -4 -31 -5 -56 -1 -56 3 0 27 11 53 24 l47 24 45 -24 c66 -34 68
-33 57 32 l-9 56 43 44 c46 47 46 48 -32 59 -43 5 -47 8 -69 56 -13 28 -27 52
-30 54 -4 2 -18 -20 -33 -50z"/>
<path d="M335 1510 c-16 -35 -22 -40 -50 -40 -45 0 -49 -10 -19 -41 24 -25 26
-33 21 -74 l-7 -45 41 20 40 21 36 -21 c20 -11 37 -20 38 -18 2 2 0 22 -4 45
-7 38 -5 45 20 69 34 32 30 44 -15 44 -29 0 -35 5 -51 40 -10 22 -21 40 -25
40 -4 0 -15 -18 -25 -40z"/>
<path d="M1024 286 c-3 -15 1 -34 11 -50 l17 -26 -35 0 c-68 0 -75 -61 -8 -68
26 -3 31 -7 26 -20 -16 -37 -17 -53 -5 -67 18 -22 46 -18 68 10 l20 25 16 -25
c18 -28 47 -32 66 -10 12 14 11 29 -5 68 -6 14 -2 17 23 17 36 0 56 21 47 50
-5 15 -15 20 -42 20 -30 0 -34 3 -27 18 4 9 8 31 8 47 1 25 -3 30 -26 33 -20
2 -31 -4 -44 -23 l-17 -27 -14 26 c-19 36 -70 37 -79 2z"/>
</g>
</svg>
