<?xml version="1.0" standalone="no"?>
<!DOCTYPE svg PUBLIC "-//W3C//DTD SVG 20010904//EN"
 "http://www.w3.org/TR/2001/REC-SVG-20010904/DTD/svg10.dtd">
<svg version="1.0" xmlns="http://www.w3.org/2000/svg"
 width="200.000000pt" height="200.000000pt" viewBox="0 0 200.000000 200.000000"
 preserveAspectRatio="xMidYMid meet">
<metadata>
Created by potrace 1.15, written by Peter Selinger 2001-2017
</metadata>
<g transform="translate(0.000000,200.000000) scale(0.100000,-0.100000)"
fill="#000000" stroke="none">
<path d="M1222 1958 c-8 -8 -12 -43 -12 -99 0 -96 9 -113 57 -107 l28 3 0 105
0 105 -30 3 c-17 2 -36 -3 -43 -10z"/>
<path d="M886 1808 c-9 -12 -16 -26 -16 -31 0 -5 25 -35 57 -68 57 -60 94 -74
121 -47 24 24 12 54 -46 111 -63 62 -91 71 -116 35z"/>
<path d="M1512 1766 c-34 -35 -62 -67 -62 -71 0 -22 24 -45 48 -45 19 0 43 16
84 57 58 57 70 87 46 111 -25 25 -55 12 -116 -52z"/>
<path d="M1164 1656 c-39 -17 -103 -83 -110 -113 -4 -13 -9 -23 -12 -23 -3 0
-26 13 -51 29 -118 75 -268 79 -403 10 -91 -46 -188 -180 -204 -281 -4 -21
-10 -38 -14 -38 -4 0 -27 -19 -50 -42 -114 -114 -122 -285 -18 -403 60 -68
124 -97 230 -103 80 -4 86 -6 78 -23 -14 -25 -12 -73 2 -87 18 -18 63 -15 81
6 8 9 23 36 32 60 l17 42 78 0 78 0 5 -29 c13 -62 86 -66 114 -6 l17 35 79 0
c71 0 78 -2 72 -17 -16 -40 -17 -54 -1 -78 33 -50 84 -28 116 50 l22 55 98 0
c88 0 102 3 158 30 108 54 166 145 167 260 0 147 -122 282 -270 297 l-53 6 24
35 c32 47 37 70 32 145 -4 72 -34 123 -95 165 -31 22 -51 27 -113 29 -48 2
-86 -2 -106 -11z m-276 -182 c19 -8 52 -28 75 -46 38 -31 46 -33 118 -33 70 0
81 -3 121 -30 52 -38 87 -97 95 -165 5 -40 9 -49 22 -46 9 3 36 10 60 16 134
35 279 -97 242 -221 -16 -52 -75 -111 -127 -127 -30 -9 -173 -12 -528 -12
-458 0 -489 1 -524 19 -84 43 -123 135 -91 218 12 34 64 89 100 108 21 11 28
24 33 60 9 67 38 126 87 180 86 93 207 123 317 79z"/>
<path d="M1572 1488 c-7 -7 -12 -24 -12 -38 0 -42 17 -50 110 -50 91 0 110 8
110 46 0 42 -25 54 -114 54 -50 0 -87 -5 -94 -12z"/>
<path d="M833 522 c-16 -10 -63 -120 -63 -147 0 -27 29 -55 57 -55 54 0 119
160 81 198 -13 13 -57 16 -75 4z"/>
<path d="M529 478 c-9 -7 -28 -42 -44 -77 -25 -59 -27 -67 -14 -90 16 -29 61
-40 84 -21 20 16 65 117 65 145 0 44 -57 71 -91 43z"/>
<path d="M1097 473 c-23 -26 -57 -110 -57 -142 0 -15 5 -32 12 -39 18 -18 63
-15 81 6 21 23 57 109 57 136 0 48 -62 73 -93 39z"/>
<path d="M700 225 c-22 -27 -60 -116 -60 -141 0 -14 10 -30 25 -40 47 -31 83
2 121 109 13 35 12 43 -1 64 -18 27 -66 31 -85 8z"/>
</g>
</svg>
