<?xml version="1.0" standalone="no"?>
<!DOCTYPE svg PUBLIC "-//W3C//DTD SVG 20010904//EN"
 "http://www.w3.org/TR/2001/REC-SVG-20010904/DTD/svg10.dtd">
<svg version="1.0" xmlns="http://www.w3.org/2000/svg"
 width="200.000000pt" height="200.000000pt" viewBox="0 0 200.000000 200.000000"
 preserveAspectRatio="xMidYMid meet">
<metadata>
Created by potrace 1.15, written by Peter Selinger 2001-2017
</metadata>
<g transform="translate(0.000000,200.000000) scale(0.100000,-0.100000)"
fill="#000000" stroke="none">
<path d="M1222 1898 c-8 -8 -12 -43 -12 -99 0 -96 9 -113 57 -107 l28 3 0 105
0 105 -30 3 c-17 2 -36 -3 -43 -10z"/>
<path d="M886 1748 c-9 -12 -16 -26 -16 -31 0 -5 25 -35 57 -68 57 -60 94 -74
121 -47 24 24 12 54 -46 111 -63 62 -91 71 -116 35z"/>
<path d="M1512 1706 c-34 -35 -62 -67 -62 -71 0 -22 24 -45 48 -45 19 0 43 16
84 57 58 57 70 87 46 111 -25 25 -55 12 -116 -52z"/>
<path d="M1164 1596 c-39 -17 -103 -83 -110 -113 -4 -13 -9 -23 -12 -23 -3 0
-26 13 -51 29 -118 75 -268 79 -403 10 -91 -46 -188 -180 -204 -281 -4 -21
-10 -38 -14 -38 -18 0 -95 -89 -116 -135 -29 -60 -32 -149 -8 -218 20 -60 84
-131 148 -165 l51 -27 313 -3 c290 -3 313 -5 306 -20 -26 -61 -2 -107 53 -100
23 2 33 13 54 58 l26 55 154 5 c129 5 162 10 202 28 77 34 123 77 156 144 36
71 41 154 15 231 -33 97 -143 183 -248 194 l-54 6 24 35 c32 47 37 70 32 145
-4 72 -34 123 -95 165 -31 22 -51 27 -113 29 -48 2 -86 -2 -106 -11z m-262
-187 c13 -6 41 -26 63 -43 36 -29 45 -31 116 -31 70 0 81 -3 121 -30 52 -38
87 -97 95 -165 5 -40 9 -49 22 -46 9 3 36 10 60 16 134 35 279 -97 242 -221
-16 -52 -75 -111 -127 -127 -30 -9 -173 -12 -528 -12 -458 0 -489 1 -524 19
-84 43 -123 135 -91 218 12 34 64 89 100 108 21 11 28 24 33 60 13 98 86 204
170 247 71 36 186 40 248 7z"/>
<path d="M1572 1428 c-7 -7 -12 -24 -12 -38 0 -42 17 -50 110 -50 91 0 110 8
110 46 0 42 -25 54 -114 54 -50 0 -87 -5 -94 -12z"/>
<path d="M668 519 c-20 -11 -23 -41 -8 -70 9 -16 7 -19 -10 -19 -31 0 -60 -18
-60 -38 0 -26 20 -42 53 -42 24 0 28 -3 22 -17 -16 -39 -17 -54 -5 -68 19 -23
46 -18 67 11 l19 26 17 -26 c19 -29 48 -34 67 -11 12 14 11 29 -5 68 -6 14 -2
17 22 17 30 0 53 15 53 36 0 21 -30 44 -56 44 -27 0 -28 3 -13 31 12 24 4 55
-17 63 -21 8 -51 -10 -59 -35 -7 -21 -7 -21 -23 3 -27 39 -37 43 -64 27z"/>
<path d="M1136 278 c-8 -13 -24 -47 -35 -75 -24 -62 -16 -99 23 -109 39 -9 61
10 91 81 36 86 29 118 -27 123 -29 3 -40 -2 -52 -20z"/>
</g>
</svg>
