<?xml version="1.0" standalone="no"?>
<!DOCTYPE svg PUBLIC "-//W3C//DTD SVG 20010904//EN"
 "http://www.w3.org/TR/2001/REC-SVG-20010904/DTD/svg10.dtd">
<svg version="1.0" xmlns="http://www.w3.org/2000/svg"
 width="200.000000pt" height="200.000000pt" viewBox="0 0 200.000000 200.000000"
 preserveAspectRatio="xMidYMid meet">
<metadata>
Created by potrace 1.15, written by Peter Selinger 2001-2017
</metadata>
<g transform="translate(0.000000,200.000000) scale(0.100000,-0.100000)"
fill="#000000" stroke="none">
<path d="M585 1850 c-22 -43 -30 -50 -62 -55 -94 -15 -91 -11 -43 -60 42 -43
43 -43 36 -99 -4 -31 -5 -56 -1 -56 3 0 27 11 53 24 l47 24 45 -24 c66 -34 68
-33 57 32 l-9 56 42 43 c48 49 51 45 -44 60 -34 6 -40 11 -59 56 -12 27 -25
49 -29 49 -4 0 -19 -22 -33 -50z"/>
<path d="M1242 1850 c-201 -72 -342 -265 -342 -467 l0 -52 -80 6 c-102 8 -189
-14 -270 -69 -82 -54 -157 -161 -175 -248 -5 -23 -24 -51 -57 -83 -68 -66 -98
-133 -98 -222 0 -123 67 -227 179 -279 37 -16 71 -21 174 -24 115 -4 128 -6
121 -21 -27 -64 -28 -70 -16 -95 9 -21 19 -26 46 -26 40 0 56 18 82 91 l18 48
345 3 c329 3 348 4 392 24 179 83 245 303 133 449 l-32 42 27 16 c14 8 42 32
60 51 l35 36 -50 0 c-188 1 -359 111 -447 289 l-42 84 0 126 c0 119 2 130 30
191 16 36 45 84 62 107 l33 43 -38 0 c-20 -1 -61 -9 -90 -20z m-346 -650 c22
-9 56 -31 75 -48 33 -29 38 -30 97 -25 121 11 209 -56 233 -180 11 -53 14 -58
33 -52 12 3 44 8 73 12 44 5 61 1 109 -22 178 -87 140 -319 -59 -356 -38 -6
-221 -9 -520 -7 -513 3 -492 1 -555 72 -42 48 -58 108 -42 161 12 38 88 127
118 136 8 3 18 29 24 59 37 207 235 327 414 250z"/>
<path d="M335 1422 c-17 -31 -26 -37 -57 -40 -45 -4 -47 -10 -12 -43 22 -21
25 -30 20 -66 -6 -48 -1 -51 44 -28 27 14 33 14 60 0 43 -22 48 -19 40 25 -6
35 -4 42 21 66 16 15 29 31 29 35 0 4 -17 9 -37 11 -32 3 -41 9 -58 40 -11 21
-22 38 -25 38 -3 0 -14 -17 -25 -38z"/>
<path d="M1054 296 c-12 -8 -33 -43 -49 -77 -21 -49 -26 -68 -19 -88 8 -22 16
-26 49 -26 39 0 41 2 73 64 17 35 32 72 32 81 0 41 -52 69 -86 46z"/>
</g>
</svg>
