<?xml version="1.0" standalone="no"?>
<!DOCTYPE svg PUBLIC "-//W3C//DTD SVG 20010904//EN"
 "http://www.w3.org/TR/2001/REC-SVG-20010904/DTD/svg10.dtd">
<svg version="1.0" xmlns="http://www.w3.org/2000/svg"
 width="200.000000pt" height="200.000000pt" viewBox="0 0 200.000000 200.000000"
 preserveAspectRatio="xMidYMid meet">
<metadata>
Created by potrace 1.15, written by Peter Selinger 2001-2017
</metadata>
<g transform="translate(0.000000,200.000000) scale(0.100000,-0.100000)"
fill="#000000" stroke="none">
<path d="M1239 1926 c-199 -70 -339 -263 -339 -467 l0 -57 -42 10 c-24 5 -74
7 -113 4 -167 -15 -320 -143 -366 -306 -8 -31 -29 -63 -65 -100 -69 -72 -93
-126 -94 -211 0 -96 23 -154 90 -221 85 -84 103 -88 447 -88 l283 0 -6 -29
c-10 -47 11 -73 54 -69 33 3 40 8 60 48 l22 45 173 5 c194 6 229 16 307 86
113 102 132 285 41 394 l-28 34 59 43 c32 24 58 47 58 53 0 5 -24 10 -53 10
-263 0 -486 225 -487 490 0 126 37 237 105 319 l27 31 -34 0 c-18 0 -63 -11
-99 -24z m-369 -637 c21 -7 61 -29 89 -50 49 -37 54 -39 106 -33 113 14 213
-62 236 -177 13 -64 12 -64 79 -48 55 13 124 -2 172 -37 112 -83 102 -240 -20
-311 l-47 -28 -482 -3 c-340 -2 -495 0 -525 9 -58 15 -122 80 -138 139 -21 77
12 139 118 222 12 10 22 29 22 43 0 13 10 50 22 82 27 73 113 163 178 186 54
19 138 21 190 6z"/>
<path d="M585 1870 c-22 -43 -30 -50 -62 -55 -94 -15 -91 -11 -43 -60 42 -43
43 -43 36 -99 -4 -31 -5 -56 -1 -56 3 0 27 11 53 24 l47 24 45 -24 c66 -34 68
-33 57 32 l-9 56 42 43 c48 49 51 45 -44 60 -34 6 -40 11 -59 56 -12 27 -25
49 -29 49 -4 0 -19 -22 -33 -50z"/>
<path d="M335 1502 c-17 -31 -26 -37 -57 -40 -45 -4 -47 -10 -12 -43 22 -21
25 -30 20 -66 -6 -48 -1 -51 44 -28 27 14 33 14 60 0 43 -22 48 -19 40 25 -6
35 -4 42 21 66 16 15 29 31 29 35 0 4 -17 9 -37 11 -32 3 -41 9 -58 40 -11 21
-22 38 -25 38 -3 0 -14 -17 -25 -38z"/>
<path d="M634 376 c-3 -15 1 -34 11 -50 l17 -26 -35 0 c-68 0 -75 -61 -8 -68
26 -3 31 -7 26 -20 -16 -37 -17 -53 -5 -67 18 -22 46 -18 68 10 l20 25 16 -25
c18 -28 47 -32 66 -10 12 14 11 29 -5 68 -6 14 -2 17 23 17 36 0 56 21 47 50
-5 15 -15 20 -42 20 -30 0 -34 3 -27 18 4 9 8 31 8 47 1 25 -3 30 -26 33 -20
2 -31 -4 -44 -23 l-17 -27 -14 26 c-19 36 -70 37 -79 2z"/>
<path d="M1147 243 c-23 -26 -57 -110 -57 -142 0 -15 5 -32 12 -39 18 -18 63
-15 80 6 22 24 58 110 58 137 0 47 -62 72 -93 38z"/>
</g>
</svg>
