<?xml version="1.0" standalone="no"?>
<!DOCTYPE svg PUBLIC "-//W3C//DTD SVG 20010904//EN"
 "http://www.w3.org/TR/2001/REC-SVG-20010904/DTD/svg10.dtd">
<svg version="1.0" xmlns="http://www.w3.org/2000/svg"
 width="200.000000pt" height="200.000000pt" viewBox="0 0 200.000000 200.000000"
 preserveAspectRatio="xMidYMid meet">
<metadata>
Created by potrace 1.15, written by Peter Selinger 2001-2017
</metadata>
<g transform="translate(0.000000,200.000000) scale(0.100000,-0.100000)"
fill="#000000" stroke="none">
<path d="M585 1920 c-22 -43 -30 -50 -62 -55 -94 -15 -91 -11 -43 -60 42 -43
43 -43 36 -99 -4 -31 -5 -56 -1 -56 3 0 27 11 53 24 l47 24 45 -24 c66 -34 68
-33 57 32 l-9 56 42 43 c48 49 51 45 -44 60 -34 6 -40 11 -59 56 -12 27 -25
49 -29 49 -4 0 -19 -22 -33 -50z"/>
<path d="M1239 1916 c-199 -70 -339 -263 -339 -467 l0 -57 -42 10 c-24 5 -74
7 -113 4 -167 -15 -320 -143 -366 -306 -8 -31 -29 -63 -65 -100 -69 -72 -93
-126 -94 -211 0 -96 23 -154 90 -221 68 -68 124 -88 246 -88 l82 0 -10 -28
c-16 -41 -3 -80 29 -88 36 -10 54 4 82 64 l24 52 77 0 78 0 6 -30 c12 -62 79
-62 111 0 15 29 17 30 94 30 l79 0 -10 -28 c-16 -41 -3 -80 29 -88 36 -9 54 4
82 63 l23 51 92 4 c77 3 102 9 150 33 112 57 171 151 170 275 0 61 -5 85 -26
126 -15 27 -33 56 -42 63 -13 11 -8 19 44 57 33 24 60 48 60 54 0 5 -24 10
-53 10 -263 0 -486 225 -487 490 0 126 37 237 105 319 l27 31 -34 0 c-18 0
-63 -11 -99 -24z m-343 -646 c22 -9 56 -31 75 -48 33 -29 38 -30 97 -25 121
11 209 -56 233 -180 11 -53 14 -58 33 -52 12 3 44 8 73 12 44 5 61 1 109 -22
178 -87 140 -319 -59 -356 -38 -6 -221 -9 -520 -7 -513 3 -492 1 -555 72 -42
48 -58 108 -42 161 12 38 88 127 118 136 8 3 18 29 24 59 37 207 235 327 414
250z"/>
<path d="M335 1492 c-17 -31 -26 -37 -57 -40 -45 -4 -47 -10 -12 -43 22 -21
25 -30 20 -66 -6 -48 -1 -51 44 -28 27 14 33 14 60 0 43 -22 48 -19 40 25 -6
35 -4 42 21 66 16 15 29 31 29 35 0 4 -17 9 -37 11 -32 3 -41 9 -58 40 -11 21
-22 38 -25 38 -3 0 -14 -17 -25 -38z"/>
<path d="M863 315 c-11 -8 -33 -44 -47 -81 -25 -62 -26 -68 -11 -90 11 -18 25
-24 51 -24 33 0 36 3 64 66 17 36 30 74 30 83 0 43 -52 70 -87 46z"/>
<path d="M549 263 c-20 -23 -59 -116 -59 -141 0 -37 54 -65 87 -44 7 4 26 38
44 76 30 64 31 71 18 95 -18 33 -68 40 -90 14z"/>
<path d="M1120 265 c-22 -27 -60 -116 -60 -141 0 -14 10 -30 25 -40 47 -31 83
2 121 109 13 35 12 43 -1 64 -18 27 -66 31 -85 8z"/>
</g>
</svg>
