<?xml version="1.0" standalone="no"?>
<!DOCTYPE svg PUBLIC "-//W3C//DTD SVG 20010904//EN"
 "http://www.w3.org/TR/2001/REC-SVG-20010904/DTD/svg10.dtd">
<svg version="1.0" xmlns="http://www.w3.org/2000/svg"
 width="200.000000pt" height="200.000000pt" viewBox="0 0 200.000000 200.000000"
 preserveAspectRatio="xMidYMid meet">
<metadata>
Created by potrace 1.15, written by Peter Selinger 2001-2017
</metadata>
<g transform="translate(0.000000,200.000000) scale(0.100000,-0.100000)"
fill="#000000" stroke="none">
<path d="M1025 1513 c-65 -27 -123 -71 -161 -122 l-36 -47 -56 19 c-86 29
-206 21 -292 -19 -109 -51 -196 -158 -229 -282 -8 -29 -27 -56 -60 -87 -126
-118 -128 -311 -4 -426 89 -82 60 -79 658 -79 l530 0 51 24 c104 49 170 137
181 242 l6 54 52 0 c152 0 270 153 235 301 -25 102 -129 189 -226 189 -36 0
-43 4 -53 29 -18 42 -88 111 -135 132 -23 10 -62 19 -87 19 -32 0 -63 9 -105
32 -51 28 -70 32 -144 35 -63 2 -96 -1 -125 -14z m167 -107 c25 -7 62 -26 82
-41 30 -23 41 -26 76 -20 85 14 169 -59 186 -162 7 -46 15 -50 61 -32 66 25
139 3 173 -54 25 -41 25 -83 0 -124 -27 -45 -60 -63 -125 -70 l-56 -6 -48 54
c-61 68 -126 102 -209 107 l-63 4 -22 47 c-26 56 -88 120 -140 144 -21 10 -68
24 -104 31 l-66 12 33 37 c33 38 72 63 120 78 37 11 52 10 102 -5z m-424 -165
c23 -12 56 -34 74 -50 30 -26 38 -28 85 -24 80 8 120 -3 169 -49 44 -41 74
-108 74 -166 0 -21 3 -23 23 -18 12 4 50 10 84 13 51 5 69 2 107 -17 84 -40
127 -123 105 -202 -15 -58 -81 -121 -142 -136 -60 -16 -945 -17 -1000 -1 -47
13 -106 63 -123 106 -34 79 2 173 84 223 27 16 42 32 42 46 0 38 29 118 59
165 77 122 239 171 359 110z"/>
</g>
</svg>
