<?xml version="1.0" standalone="no"?>
<!DOCTYPE svg PUBLIC "-//W3C//DTD SVG 20010904//EN"
 "http://www.w3.org/TR/2001/REC-SVG-20010904/DTD/svg10.dtd">
<svg version="1.0" xmlns="http://www.w3.org/2000/svg"
 width="200.000000pt" height="200.000000pt" viewBox="0 0 200.000000 200.000000"
 preserveAspectRatio="xMidYMid meet">
<metadata>
Created by potrace 1.15, written by Peter Selinger 2001-2017
</metadata>
<g transform="translate(0.000000,200.000000) scale(0.100000,-0.100000)"
fill="#000000" stroke="none">
<path d="M663 1525 c-179 -39 -343 -201 -385 -381 -9 -40 -20 -56 -49 -77 -20
-15 -51 -48 -68 -74 -96 -145 -74 -324 54 -441 98 -90 67 -86 743 -90 381 -2
614 1 650 8 116 21 203 85 253 185 77 158 31 339 -112 437 -61 42 -164 73
-220 65 -36 -5 -37 -4 -59 44 -33 74 -111 153 -185 190 -50 24 -83 33 -149 38
-56 4 -91 12 -103 23 -33 29 -104 59 -172 74 -80 17 -117 17 -198 -1z m213
-125 c31 -10 79 -37 108 -58 40 -30 56 -37 76 -31 76 21 166 -2 232 -60 50
-44 82 -104 100 -182 6 -29 12 -55 13 -57 1 -1 22 5 46 13 144 52 295 -25 329
-165 23 -98 -32 -204 -132 -254 l-52 -26 -602 0 -602 0 -53 28 c-79 41 -114
102 -114 197 0 62 4 77 28 114 16 24 51 56 78 73 38 24 49 37 49 56 0 49 32
137 68 191 103 152 273 216 428 161z"/>
</g>
</svg>
