<?xml version="1.0" standalone="no"?>
<!DOCTYPE svg PUBLIC "-//W3C//DTD SVG 20010904//EN"
 "http://www.w3.org/TR/2001/REC-SVG-20010904/DTD/svg10.dtd">
<svg version="1.0" xmlns="http://www.w3.org/2000/svg"
 width="200.000000pt" height="200.000000pt" viewBox="0 0 200.000000 200.000000"
 preserveAspectRatio="xMidYMid meet">
<metadata>
Created by potrace 1.15, written by Peter Selinger 2001-2017
</metadata>
<g transform="translate(0.000000,200.000000) scale(0.100000,-0.100000)"
fill="#000000" stroke="none">
<path d="M585 1697 l-24 -55 -56 -7 c-30 -4 -58 -11 -60 -15 -3 -5 14 -25 38
-44 l44 -36 -10 -56 c-5 -30 -7 -58 -4 -61 3 -3 28 7 55 22 l50 27 51 -28 c27
-16 52 -26 55 -24 2 3 -1 29 -6 58 l-11 53 42 43 c22 23 41 44 41 48 0 3 -26
8 -58 12 l-59 7 -23 50 c-13 28 -28 53 -32 55 -5 3 -19 -19 -33 -49z"/>
<path d="M1301 1709 c-81 -16 -188 -74 -250 -137 -91 -90 -151 -229 -151 -347
l0 -50 -112 0 c-106 0 -117 -2 -180 -32 -89 -42 -159 -113 -203 -205 -19 -40
-35 -82 -35 -95 0 -13 -14 -32 -36 -49 -175 -134 -146 -413 54 -511 l57 -28
490 -3 c600 -4 624 -1 722 98 105 104 120 249 41 374 -30 46 -31 49 -12 59 10
6 37 28 59 49 l40 37 -40 1 c-62 1 -168 26 -230 55 -31 15 -85 54 -119 86
-105 98 -156 219 -156 368 1 120 29 199 116 319 19 25 17 25 -55 11z m-402
-669 c21 -10 53 -31 71 -47 30 -25 39 -27 102 -24 124 5 205 -59 230 -180 12
-58 12 -58 42 -51 17 4 59 7 93 7 53 -1 69 -6 105 -31 56 -39 88 -95 88 -157
0 -54 -16 -90 -57 -129 -61 -58 -57 -58 -600 -58 -466 0 -501 1 -533 19 -47
25 -87 77 -101 132 -12 44 -11 50 15 103 19 39 41 65 72 86 27 19 46 41 50 58
17 75 26 101 54 150 75 129 246 185 369 122z"/>
<path d="M337 1265 c-14 -29 -23 -36 -57 -41 -22 -4 -40 -10 -40 -14 0 -3 12
-17 26 -31 22 -21 25 -30 20 -66 -3 -24 -4 -43 -1 -43 2 0 20 8 40 17 33 16
37 16 70 0 20 -9 37 -17 39 -17 2 0 1 19 -1 43 -4 36 -1 46 21 66 14 14 26 28
26 31 0 4 -18 10 -40 14 -34 5 -43 12 -57 41 -9 19 -20 35 -23 35 -3 0 -14
-16 -23 -35z"/>
</g>
</svg>
