<?xml version="1.0" standalone="no"?>
<!DOCTYPE svg PUBLIC "-//W3C//DTD SVG 20010904//EN"
 "http://www.w3.org/TR/2001/REC-SVG-20010904/DTD/svg10.dtd">
<svg version="1.0" xmlns="http://www.w3.org/2000/svg"
 width="200.000000pt" height="200.000000pt" viewBox="0 0 200.000000 200.000000"
 preserveAspectRatio="xMidYMid meet">
<metadata>
Created by potrace 1.15, written by Peter Selinger 2001-2017
</metadata>
<g transform="translate(0.000000,200.000000) scale(0.100000,-0.100000)"
fill="#000000" stroke="none">
<path d="M1222 1628 c-8 -8 -12 -43 -12 -99 0 -96 9 -113 57 -107 l28 3 0 105
0 105 -30 3 c-17 2 -36 -3 -43 -10z"/>
<path d="M886 1478 c-9 -12 -16 -26 -16 -31 0 -5 25 -35 57 -68 57 -60 94 -74
121 -47 24 24 12 54 -46 111 -63 62 -91 71 -116 35z"/>
<path d="M1512 1436 c-34 -35 -62 -67 -62 -71 0 -22 24 -45 48 -45 19 0 43 16
84 57 58 57 70 87 46 111 -25 25 -55 12 -116 -52z"/>
<path d="M1164 1321 c-41 -19 -114 -94 -114 -118 0 -16 -26 -17 -36 -2 -13 22
-126 67 -184 74 -115 13 -246 -32 -329 -115 -51 -51 -106 -148 -117 -207 -4
-24 -21 -48 -51 -76 -69 -63 -95 -116 -101 -201 -6 -101 21 -168 94 -235 91
-83 81 -82 675 -79 501 3 515 4 560 24 161 75 225 249 148 403 -48 96 -160
171 -256 171 -28 0 -29 3 -1 41 33 44 38 160 10 215 -56 109 -187 155 -298
105z m-262 -182 c13 -6 41 -26 63 -43 36 -29 45 -31 116 -31 70 0 81 -3 121
-30 52 -38 87 -97 95 -165 5 -40 9 -49 22 -46 9 3 36 10 60 16 134 35 279 -97
242 -221 -16 -52 -75 -111 -127 -127 -30 -9 -173 -12 -528 -12 -458 0 -489 1
-524 19 -84 43 -123 135 -91 218 12 34 64 89 100 108 21 11 28 24 33 60 13 98
86 204 170 247 71 36 186 40 248 7z"/>
<path d="M1572 1158 c-7 -7 -12 -24 -12 -38 0 -42 17 -50 110 -50 91 0 110 8
110 46 0 42 -25 54 -114 54 -50 0 -87 -5 -94 -12z"/>
</g>
</svg>
