<?xml version="1.0" standalone="no"?>
<!DOCTYPE svg PUBLIC "-//W3C//DTD SVG 20010904//EN"
 "http://www.w3.org/TR/2001/REC-SVG-20010904/DTD/svg10.dtd">
<svg version="1.0" xmlns="http://www.w3.org/2000/svg"
 width="200.000000pt" height="200.000000pt" viewBox="0 0 200.000000 200.000000"
 preserveAspectRatio="xMidYMid meet">
<metadata>
Created by potrace 1.15, written by Peter Selinger 2001-2017
</metadata>
<g transform="translate(0.000000,200.000000) scale(0.100000,-0.100000)"
fill="#000000" stroke="none">
<path d="M1014 1779 c-59 -22 -132 -83 -164 -134 l-21 -35 -32 17 c-48 25
-202 30 -269 9 -123 -40 -230 -149 -268 -275 -17 -53 -30 -76 -65 -109 -25
-23 -57 -65 -72 -94 -57 -112 -26 -259 73 -347 75 -66 102 -71 397 -71 233 0
259 -2 253 -16 -15 -39 -17 -64 -6 -84 9 -17 19 -21 48 -18 34 3 40 8 67 60
l29 57 201 3 c189 3 203 4 250 28 97 47 175 161 175 254 l0 33 58 6 c95 8 174
61 218 147 26 50 24 153 -4 206 -41 80 -125 134 -205 134 -40 0 -46 3 -57 30
-18 44 -86 109 -137 132 -24 11 -66 21 -93 22 -26 1 -60 10 -75 20 -76 50
-209 61 -301 25z m189 -103 c20 -8 53 -26 72 -41 28 -21 42 -25 66 -20 52 12
97 -3 139 -45 31 -31 42 -51 52 -100 8 -39 16 -59 24 -56 62 24 96 28 132 18
112 -34 136 -173 40 -232 -18 -10 -56 -22 -86 -26 l-53 -6 -50 55 c-59 67
-130 103 -215 113 -57 6 -61 8 -73 39 -31 88 -148 171 -255 182 -31 3 -56 9
-56 13 0 5 22 28 49 52 72 65 137 81 214 54z m-435 -165 c23 -12 56 -34 74
-50 30 -26 38 -28 85 -24 80 8 120 -3 169 -49 44 -41 74 -108 74 -166 0 -21 3
-23 23 -18 12 4 50 10 84 13 51 5 69 2 107 -17 84 -40 127 -123 105 -202 -15
-58 -81 -121 -142 -136 -60 -16 -945 -17 -1000 -1 -47 13 -106 63 -123 106
-34 79 2 173 84 223 27 16 42 32 42 46 0 38 29 118 59 165 77 122 239 171 359
110z"/>
<path d="M618 563 c-9 -10 -25 -40 -37 -67 -35 -81 -25 -126 29 -126 36 0 46
9 74 70 32 69 33 104 4 124 -29 21 -51 20 -70 -1z"/>
<path d="M933 393 c-24 -22 -63 -112 -63 -146 0 -33 22 -49 62 -45 28 3 36 10
56 53 34 70 39 111 17 135 -22 25 -47 25 -72 3z"/>
</g>
</svg>
