<?xml version="1.0" standalone="no"?>
<!DOCTYPE svg PUBLIC "-//W3C//DTD SVG 20010904//EN"
 "http://www.w3.org/TR/2001/REC-SVG-20010904/DTD/svg10.dtd">
<svg version="1.0" xmlns="http://www.w3.org/2000/svg"
 width="200.000000pt" height="200.000000pt" viewBox="0 0 200.000000 200.000000"
 preserveAspectRatio="xMidYMid meet">
<metadata>
Created by potrace 1.15, written by Peter Selinger 2001-2017
</metadata>
<g transform="translate(0.000000,200.000000) scale(0.100000,-0.100000)"
fill="#000000" stroke="none">
<path d="M685 1816 c-139 -44 -245 -157 -284 -304 -8 -29 -27 -56 -60 -87
-154 -144 -116 -391 74 -481 l50 -24 531 0 531 0 61 30 c110 55 166 145 166
265 0 120 -56 210 -166 265 -46 23 -75 30 -117 30 l-56 0 -18 45 c-42 100
-156 176 -273 180 -52 2 -71 8 -110 34 -27 17 -70 38 -98 46 -60 18 -176 18
-231 1z m182 -109 c28 -7 75 -31 104 -53 51 -37 57 -39 129 -39 61 0 82 -4
113 -24 51 -31 85 -84 98 -154 12 -59 12 -59 43 -53 86 16 105 17 144 7 47
-13 106 -60 128 -102 7 -15 14 -50 14 -77 0 -59 -26 -103 -88 -147 l-44 -30
-499 -3 c-474 -3 -502 -2 -543 16 -96 43 -134 157 -82 246 14 24 45 56 70 72
39 25 44 32 49 75 15 123 110 234 227 265 59 16 76 17 137 1z"/>
<path d="M490 860 c-8 -15 -7 -27 5 -49 l15 -30 -38 -3 c-34 -3 -37 -6 -37
-33 0 -27 3 -30 38 -33 34 -3 36 -5 26 -23 -5 -11 -9 -32 -7 -47 4 -37 44 -43
70 -10 l18 23 18 -23 c26 -33 66 -27 70 10 2 15 -2 36 -7 47 -10 18 -8 20 26
23 35 3 38 6 38 33 0 28 -3 30 -38 33 -32 3 -37 6 -31 20 4 9 8 31 8 47 1 25
-3 30 -26 33 -20 2 -31 -4 -44 -23 l-17 -27 -14 26 c-17 32 -57 35 -73 6z"/>
<path d="M1163 853 c-15 -6 -17 -51 -3 -73 8 -12 3 -16 -22 -20 -63 -10 -63
-70 0 -80 25 -4 30 -8 22 -20 -18 -28 -12 -68 12 -76 16 -5 27 0 45 20 l23 27
23 -27 c39 -45 82 -11 60 47 -11 27 -10 29 16 29 33 0 51 16 51 46 0 24 -17
34 -56 34 -21 0 -23 3 -14 19 32 61 -14 107 -57 56 l-24 -27 -20 26 c-20 26
-32 29 -56 19z"/>
<path d="M922 753 c-19 -7 -72 -122 -72 -154 0 -35 21 -51 62 -47 29 3 36 10
60 58 34 69 36 113 6 134 -23 17 -34 18 -56 9z"/>
<path d="M610 475 c-22 -26 -60 -115 -60 -139 0 -28 29 -56 57 -56 27 0 47 24
78 94 22 50 24 61 13 84 -16 32 -67 42 -88 17z"/>
<path d="M957 433 c-10 -10 -8 -56 3 -73 8 -12 2 -16 -28 -20 -33 -5 -37 -8
-37 -35 0 -27 3 -30 38 -33 34 -3 36 -5 26 -23 -5 -11 -9 -32 -7 -47 4 -37 44
-43 70 -10 l18 23 18 -23 c26 -33 66 -27 70 10 2 15 -2 36 -7 47 -10 18 -8 20
26 23 35 3 38 6 38 33 0 27 -3 30 -38 33 -34 3 -36 5 -26 23 5 11 9 32 7 47
-4 37 -44 43 -70 10 l-19 -23 -16 23 c-15 21 -52 30 -66 15z"/>
</g>
</svg>
