<?xml version="1.0" standalone="no"?>
<!DOCTYPE svg PUBLIC "-//W3C//DTD SVG 20010904//EN"
 "http://www.w3.org/TR/2001/REC-SVG-20010904/DTD/svg10.dtd">
<svg version="1.0" xmlns="http://www.w3.org/2000/svg"
 width="200.000000pt" height="200.000000pt" viewBox="0 0 200.000000 200.000000"
 preserveAspectRatio="xMidYMid meet">
<metadata>
Created by potrace 1.15, written by Peter Selinger 2001-2017
</metadata>
<g transform="translate(0.000000,200.000000) scale(0.100000,-0.100000)"
fill="#000000" stroke="none">
<path d="M678 1771 c-75 -24 -116 -51 -171 -110 -49 -53 -88 -122 -106 -189
-8 -29 -26 -56 -56 -83 -65 -60 -100 -138 -99 -219 2 -163 120 -282 294 -297
39 -3 70 -7 70 -9 0 -1 -4 -14 -10 -28 -20 -54 29 -103 78 -77 10 5 30 35 43
65 l24 56 78 0 c74 0 77 -1 77 -23 0 -39 22 -59 60 -55 29 2 39 10 55 40 l20
38 78 0 c42 0 77 -2 77 -5 0 -2 -5 -15 -11 -29 -25 -55 22 -112 71 -86 12 6
33 36 46 65 l24 53 113 4 c97 3 119 8 163 30 60 32 119 94 146 156 25 56 22
167 -7 227 -47 97 -169 175 -273 175 -46 0 -47 1 -65 44 -22 53 -100 129 -160
156 -27 13 -65 20 -105 20 -53 0 -70 5 -105 29 -70 48 -116 63 -207 67 -65 3
-98 0 -142 -15z m228 -120 c23 -11 59 -35 80 -54 37 -32 42 -34 85 -28 66 10
133 -9 176 -50 41 -39 58 -75 68 -141 4 -27 8 -48 9 -48 0 0 17 5 36 10 139
42 268 -30 278 -156 5 -65 -23 -121 -82 -161 l-41 -28 -495 -3 c-272 -2 -510
0 -528 3 -37 7 -96 55 -118 96 -7 15 -14 50 -14 77 0 60 26 102 93 152 36 27
47 41 47 62 0 80 88 216 165 255 72 38 175 44 241 14z"/>
<path d="M833 702 c-16 -10 -63 -120 -63 -147 0 -27 29 -55 57 -55 54 0 119
160 81 198 -13 13 -57 16 -75 4z"/>
<path d="M529 658 c-9 -7 -28 -42 -44 -77 -25 -59 -27 -67 -14 -90 16 -29 61
-40 84 -21 20 16 65 117 65 145 0 44 -57 71 -91 43z"/>
<path d="M1097 653 c-23 -26 -57 -110 -57 -142 0 -15 5 -32 12 -39 18 -18 63
-15 81 6 21 23 57 109 57 136 0 48 -62 73 -93 39z"/>
<path d="M700 405 c-22 -27 -60 -116 -60 -141 0 -14 10 -30 25 -40 47 -31 83
2 121 109 13 35 12 43 -1 64 -18 27 -66 31 -85 8z"/>
</g>
</svg>
