<?xml version="1.0" standalone="no"?>
<!DOCTYPE svg PUBLIC "-//W3C//DTD SVG 20010904//EN"
 "http://www.w3.org/TR/2001/REC-SVG-20010904/DTD/svg10.dtd">
<svg version="1.0" xmlns="http://www.w3.org/2000/svg"
 width="200.000000pt" height="200.000000pt" viewBox="0 0 200.000000 200.000000"
 preserveAspectRatio="xMidYMid meet">
<metadata>
Created by potrace 1.15, written by Peter Selinger 2001-2017
</metadata>
<g transform="translate(0.000000,200.000000) scale(0.100000,-0.100000)"
fill="#000000" stroke="none">
<path d="M1014 1779 c-59 -22 -132 -83 -164 -134 l-21 -35 -32 17 c-48 25
-202 30 -269 9 -123 -40 -230 -149 -268 -275 -17 -53 -30 -76 -65 -109 -25
-23 -57 -65 -72 -94 -57 -112 -26 -259 73 -347 77 -68 98 -71 442 -71 286 0
304 -1 297 -17 -5 -10 -10 -32 -12 -49 -6 -38 15 -56 59 -52 29 3 36 9 59 58
l26 55 159 5 c143 4 164 8 209 30 97 47 175 161 175 254 l0 33 58 6 c95 8 174
61 218 147 26 50 24 153 -4 206 -41 80 -125 134 -205 134 -40 0 -46 3 -57 30
-18 44 -86 109 -137 132 -24 11 -66 21 -93 22 -26 1 -60 10 -75 20 -76 50
-209 61 -301 25z m189 -103 c20 -8 53 -26 72 -41 28 -21 42 -25 66 -20 52 12
97 -3 139 -45 31 -31 42 -51 52 -100 8 -39 16 -59 24 -56 62 24 96 28 132 18
112 -34 136 -173 40 -232 -18 -10 -56 -22 -86 -26 l-53 -6 -50 55 c-59 67
-130 103 -215 113 -57 6 -61 8 -73 39 -31 88 -148 171 -255 182 -31 3 -56 9
-56 13 0 5 22 28 49 52 72 65 137 81 214 54z m-435 -165 c23 -12 56 -34 74
-50 31 -27 38 -29 98 -24 54 4 72 1 109 -19 64 -33 100 -83 114 -157 11 -59
13 -62 37 -57 89 21 129 19 184 -8 87 -43 127 -118 106 -198 -16 -58 -82 -121
-143 -136 -60 -16 -945 -17 -1000 -1 -47 13 -106 63 -123 106 -34 79 2 173 84
223 27 16 42 32 42 46 0 38 29 118 59 165 77 122 239 171 359 110z"/>
<path d="M524 606 c-3 -13 -1 -33 5 -44 16 -29 14 -32 -18 -32 -35 0 -55 -22
-46 -50 5 -15 15 -20 42 -20 30 0 34 -3 27 -17 -4 -10 -8 -31 -8 -48 -1 -25 3
-30 26 -33 20 -2 31 4 44 23 l17 27 14 -26 c10 -19 22 -26 43 -26 38 0 50 36
25 73 l-16 26 37 3 c70 6 69 68 -2 68 l-33 0 17 30 c32 55 -26 96 -66 46 l-20
-26 -16 25 c-22 34 -63 34 -72 1z"/>
<path d="M1012 385 c-11 -13 -30 -49 -42 -80 -21 -52 -21 -56 -6 -80 19 -29
66 -34 86 -10 20 24 60 115 60 136 0 25 -35 59 -59 59 -11 0 -28 -11 -39 -25z"/>
</g>
</svg>
