<?xml version="1.0" standalone="no"?>
<!DOCTYPE svg PUBLIC "-//W3C//DTD SVG 20010904//EN"
 "http://www.w3.org/TR/2001/REC-SVG-20010904/DTD/svg10.dtd">
<svg version="1.0" xmlns="http://www.w3.org/2000/svg"
 width="200.000000pt" height="200.000000pt" viewBox="0 0 200.000000 200.000000"
 preserveAspectRatio="xMidYMid meet">
<metadata>
Created by potrace 1.15, written by Peter Selinger 2001-2017
</metadata>
<g transform="translate(0.000000,200.000000) scale(0.100000,-0.100000)"
fill="#000000" stroke="none">
<path d="M647 1716 c-131 -35 -164 -129 -77 -216 106 -106 456 -225 769 -260
120 -14 328 -8 385 11 94 32 126 121 69 190 -91 108 -409 227 -730 273 -133
19 -348 20 -416 2z m328 -106 c208 -24 453 -90 600 -161 85 -41 134 -74 124
-84 -16 -15 -143 -26 -235 -21 -240 15 -507 80 -689 167 -87 42 -134 74 -123
84 24 24 179 31 323 15z"/>
<path d="M240 1480 c-8 -15 -7 -27 5 -49 l15 -30 -38 -3 c-34 -3 -37 -6 -37
-33 0 -27 3 -30 38 -33 34 -3 36 -5 26 -23 -5 -11 -9 -32 -7 -47 4 -37 44 -43
70 -10 l18 23 18 -23 c26 -33 66 -27 70 10 2 15 -2 36 -7 47 -10 18 -8 20 26
23 35 3 38 6 38 33 0 28 -3 30 -38 33 -32 3 -37 6 -31 20 4 9 8 31 8 47 1 25
-3 30 -26 33 -20 2 -31 -4 -44 -23 l-17 -27 -14 26 c-17 32 -57 35 -73 6z"/>
<path d="M614 1305 c-31 -48 1 -83 141 -153 237 -118 589 -175 865 -142 143
18 171 35 156 96 -8 32 -39 38 -125 25 -38 -6 -132 -11 -208 -11 -272 0 -511
59 -696 171 -77 46 -110 49 -133 14z"/>
<path d="M607 1092 c-20 -22 -22 -52 -4 -75 20 -27 173 -114 256 -146 123 -47
210 -62 401 -67 199 -6 223 0 228 52 6 59 -11 64 -188 64 -262 0 -426 46 -602
171 -33 24 -70 24 -91 1z"/>
<path d="M622 868 c-13 -13 -16 -57 -4 -73 16 -23 90 -74 151 -105 80 -40 172
-60 283 -60 96 0 118 11 118 59 0 42 -17 51 -94 51 -134 1 -237 33 -337 106
-48 35 -95 44 -117 22z"/>
<path d="M1340 645 c-12 -14 -11 -29 5 -67 6 -15 2 -18 -22 -18 -33 0 -53 -16
-53 -42 0 -20 29 -38 60 -38 17 0 19 -3 10 -19 -15 -29 -12 -59 6 -69 24 -14
50 -4 65 24 l13 25 13 -24 c7 -14 19 -27 28 -31 36 -14 65 26 46 63 -15 28
-14 31 13 31 26 0 56 23 56 44 0 21 -23 36 -53 36 -24 0 -28 3 -22 18 16 38
17 53 5 67 -19 23 -46 18 -67 -11 l-19 -26 -17 26 c-19 29 -48 34 -67 11z"/>
<path d="M777 602 c-61 -68 56 -161 214 -170 83 -5 109 8 109 54 0 40 -33 64
-90 64 -55 0 -106 17 -147 50 -32 25 -65 26 -86 2z"/>
<path d="M894 375 c-32 -50 17 -105 95 -105 53 0 71 13 71 49 0 37 -10 48 -60
65 -63 22 -87 20 -106 -9z"/>
</g>
</svg>
