<?xml version="1.0" standalone="no"?>
<!DOCTYPE svg PUBLIC "-//W3C//DTD SVG 20010904//EN"
 "http://www.w3.org/TR/2001/REC-SVG-20010904/DTD/svg10.dtd">
<svg version="1.0" xmlns="http://www.w3.org/2000/svg"
 width="200.000000pt" height="200.000000pt" viewBox="0 0 200.000000 200.000000"
 preserveAspectRatio="xMidYMid meet">
<metadata>
Created by potrace 1.15, written by Peter Selinger 2001-2017
</metadata>
<g transform="translate(0.000000,200.000000) scale(0.100000,-0.100000)"
fill="#000000" stroke="none">
<path d="M723 1660 c-149 -31 -267 -141 -313 -288 -15 -49 -31 -74 -68 -110
-67 -65 -96 -129 -96 -212 0 -36 5 -82 13 -103 20 -58 82 -129 142 -162 l54
-30 540 0 540 0 49 24 c183 90 232 313 101 459 -57 63 -133 102 -214 109 -58
5 -61 7 -71 39 -16 47 -80 115 -141 148 -41 23 -70 30 -128 34 -60 4 -83 10
-108 29 -72 55 -206 83 -300 63z m188 -135 c19 -10 52 -32 75 -51 38 -31 45
-32 96 -27 125 13 213 -60 232 -191 7 -46 9 -48 34 -42 105 26 169 15 228 -37
47 -41 64 -77 64 -135 0 -61 -40 -121 -102 -154 l-43 -23 -500 0 c-570 0 -551
-3 -607 84 -56 88 -25 198 72 253 30 17 40 29 40 49 0 44 29 124 59 166 83
115 242 164 352 108z"/>
<path d="M687 693 c-10 -10 -8 -52 3 -74 9 -16 7 -19 -14 -19 -39 0 -56 -10
-56 -34 0 -30 18 -46 54 -46 23 0 27 -3 18 -12 -19 -19 -15 -66 8 -78 17 -9
25 -6 45 14 l25 25 25 -25 c20 -20 28 -23 45 -14 23 12 27 59 8 78 -9 9 -7 12
11 12 35 0 61 19 61 44 0 25 -17 36 -56 36 -21 0 -23 3 -14 19 19 37 12 70
-17 77 -21 6 -30 2 -45 -20 l-20 -26 -20 25 c-19 24 -47 32 -61 18z"/>
<path d="M1100 595 c-12 -14 -11 -29 5 -67 6 -15 2 -18 -22 -18 -33 0 -53 -16
-53 -42 0 -20 29 -38 60 -38 17 0 19 -3 10 -19 -15 -29 -12 -59 6 -69 24 -14
50 -4 65 24 l13 25 13 -24 c7 -14 19 -27 28 -31 36 -14 65 26 46 63 -15 28
-14 31 13 31 22 0 56 22 56 36 0 25 -25 44 -56 44 l-35 0 16 30 c30 59 -23 96
-63 45 l-20 -25 -16 25 c-18 28 -47 32 -66 10z"/>
</g>
</svg>
