<?xml version="1.0" standalone="no"?>
<!DOCTYPE svg PUBLIC "-//W3C//DTD SVG 20010904//EN"
 "http://www.w3.org/TR/2001/REC-SVG-20010904/DTD/svg10.dtd">
<svg version="1.0" xmlns="http://www.w3.org/2000/svg"
 width="200.000000pt" height="200.000000pt" viewBox="0 0 200.000000 200.000000"
 preserveAspectRatio="xMidYMid meet">
<metadata>
Created by potrace 1.15, written by Peter Selinger 2001-2017
</metadata>
<g transform="translate(0.000000,200.000000) scale(0.100000,-0.100000)"
fill="#000000" stroke="none">
<path d="M1014 1789 c-59 -22 -132 -83 -164 -134 l-21 -35 -32 18 c-25 13 -57
17 -147 17 -106 0 -119 -2 -169 -28 -114 -59 -187 -144 -223 -261 -14 -46 -30
-72 -63 -104 -69 -65 -99 -132 -99 -217 0 -116 59 -214 161 -265 l48 -25 526
-3 c509 -2 529 -2 581 18 107 40 184 137 195 245 l6 55 42 0 c94 0 174 48 220
131 55 102 35 223 -51 299 -48 42 -92 60 -147 60 -40 0 -46 3 -57 30 -18 44
-86 109 -137 132 -24 11 -66 21 -93 22 -26 1 -60 10 -75 20 -76 50 -209 61
-301 25z m189 -103 c20 -8 53 -26 72 -41 28 -21 42 -25 66 -20 52 12 97 -3
139 -45 31 -31 42 -51 52 -100 8 -39 16 -59 24 -56 62 24 96 28 132 18 112
-34 136 -173 40 -232 -18 -10 -56 -22 -86 -26 l-53 -6 -50 55 c-59 67 -130
103 -215 113 -57 6 -61 8 -73 39 -31 88 -148 171 -255 182 -31 3 -56 9 -56 13
0 5 22 28 49 52 72 65 137 81 214 54z m-460 -152 c25 -8 66 -33 91 -55 34 -31
51 -39 67 -34 11 4 43 7 71 7 100 -1 179 -79 194 -189 7 -57 9 -58 51 -42 46
17 127 13 171 -10 143 -73 142 -247 -2 -324 -41 -22 -45 -22 -531 -22 -269 0
-502 3 -517 8 -38 10 -98 65 -114 104 -33 78 -2 166 77 218 41 27 46 35 56 88
38 195 213 310 386 251z"/>
<path d="M564 625 c-6 -15 -3 -33 11 -67 6 -15 2 -18 -28 -18 -27 0 -37 -5
-42 -20 -9 -29 11 -50 47 -50 25 0 29 -3 23 -17 -16 -39 -17 -54 -5 -68 19
-22 48 -18 66 10 l16 25 20 -26 c39 -49 98 -10 66 46 l-16 29 35 3 c71 6 67
68 -4 68 l-35 0 17 26 c25 38 13 74 -25 74 -21 0 -33 -7 -43 -26 l-14 -26 -16
26 c-20 29 -64 36 -73 11z"/>
<path d="M1000 445 c-12 -14 -11 -29 5 -67 6 -15 2 -18 -24 -18 -26 0 -51 -21
-51 -44 0 -14 35 -36 57 -36 20 0 24 -4 18 -17 -16 -37 -16 -60 -1 -72 21 -17
53 -5 70 27 l13 26 8 -23 c9 -30 49 -48 70 -31 17 14 20 56 5 65 -19 12 -10
24 21 27 64 6 64 70 0 76 -31 3 -40 15 -21 27 15 9 12 51 -5 65 -21 17 -61 -1
-70 -30 -7 -21 -8 -21 -26 9 -20 33 -49 40 -69 16z"/>
</g>
</svg>
