<?xml version="1.0" standalone="no"?>
<!DOCTYPE svg PUBLIC "-//W3C//DTD SVG 20010904//EN"
 "http://www.w3.org/TR/2001/REC-SVG-20010904/DTD/svg10.dtd">
<svg version="1.0" xmlns="http://www.w3.org/2000/svg"
 width="200.000000pt" height="200.000000pt" viewBox="0 0 200.000000 200.000000"
 preserveAspectRatio="xMidYMid meet">
<metadata>
Created by potrace 1.15, written by Peter Selinger 2001-2017
</metadata>
<g transform="translate(0.000000,200.000000) scale(0.100000,-0.100000)"
fill="#000000" stroke="none">
<path d="M950 1641 c-5 -11 -10 -63 -10 -116 0 -118 7 -135 60 -135 53 0 60
17 60 135 0 118 -7 135 -60 135 -29 0 -42 -5 -50 -19z"/>
<path d="M530 1470 c-11 -11 -20 -30 -20 -42 0 -26 148 -178 174 -178 22 0 66
44 66 66 0 26 -152 174 -178 174 -12 0 -31 -9 -42 -20z"/>
<path d="M1328 1412 c-43 -43 -78 -86 -78 -96 0 -22 44 -66 66 -66 26 0 174
152 174 178 0 12 -9 31 -20 42 -35 35 -59 25 -142 -58z"/>
<path d="M912 1276 c-205 -67 -268 -329 -117 -481 58 -57 116 -80 205 -80 89
0 147 23 205 80 57 58 80 116 80 205 0 89 -23 147 -80 205 -72 71 -198 102
-293 71z"/>
<path d="M358 1049 c-26 -15 -25 -85 1 -99 11 -5 63 -10 116 -10 118 0 135 7
135 60 0 29 -5 42 -19 50 -25 13 -211 13 -233 -1z"/>
<path d="M1408 1049 c-26 -15 -25 -85 1 -99 11 -5 63 -10 116 -10 118 0 135 7
135 60 0 29 -5 42 -19 50 -25 13 -211 13 -233 -1z"/>
<path d="M589 673 c-85 -82 -95 -107 -59 -143 11 -11 30 -20 42 -20 26 0 178
148 178 174 0 22 -44 66 -66 66 -9 0 -52 -35 -95 -77z"/>
<path d="M1275 725 c-14 -13 -25 -32 -25 -41 0 -26 152 -174 178 -174 12 0 31
9 42 20 11 11 20 30 20 42 0 26 -148 178 -174 178 -9 0 -28 -11 -41 -25z"/>
<path d="M950 591 c-5 -11 -10 -63 -10 -116 0 -118 7 -135 60 -135 53 0 60 17
60 135 0 118 -7 135 -60 135 -29 0 -42 -5 -50 -19z"/>
</g>
</svg>
