<?xml version="1.0" standalone="no"?>
<!DOCTYPE svg PUBLIC "-//W3C//DTD SVG 20010904//EN"
 "http://www.w3.org/TR/2001/REC-SVG-20010904/DTD/svg10.dtd">
<svg version="1.0" xmlns="http://www.w3.org/2000/svg"
 width="200.000000pt" height="200.000000pt" viewBox="0 0 200.000000 200.000000"
 preserveAspectRatio="xMidYMid meet">
<metadata>
Created by potrace 1.15, written by Peter Selinger 2001-2017
</metadata>
<g transform="translate(0.000000,200.000000) scale(0.100000,-0.100000)"
fill="#000000" stroke="none">
<path d="M1220 1951 c-5 -11 -10 -52 -10 -91 0 -86 11 -110 48 -110 44 0 52
16 52 110 0 54 -5 91 -12 98 -19 19 -66 15 -78 -7z"/>
<path d="M892 1818 c-25 -25 -12 -55 52 -116 55 -54 67 -61 88 -53 15 5 24 18
26 36 3 23 -7 39 -54 86 -58 59 -88 71 -112 47z"/>
<path d="M1517 1772 c-61 -62 -71 -91 -36 -116 28 -19 45 -12 107 48 53 51 66
88 40 114 -24 24 -54 12 -111 -46z"/>
<path d="M1165 1654 c-43 -23 -92 -72 -105 -104 l-12 -28 -41 27 c-104 70
-243 86 -361 43 -121 -44 -224 -154 -263 -281 -13 -41 -30 -68 -64 -101 -130
-125 -132 -308 -5 -435 77 -77 109 -85 343 -85 106 0 193 -4 193 -8 0 -4 -22
-75 -50 -157 -27 -82 -50 -153 -50 -157 0 -4 36 -8 80 -8 44 0 80 -4 80 -8 0
-4 -22 -75 -50 -157 -46 -138 -53 -173 -31 -149 49 49 371 420 371 426 0 4
-43 8 -96 8 -53 0 -94 4 -92 8 2 5 28 52 58 104 l55 96 205 4 205 3 54 30
c107 59 161 151 161 274 0 145 -114 271 -268 296 -24 4 -41 10 -39 13 69 129
49 256 -52 327 -37 26 -53 30 -119 33 -56 2 -85 -2 -107 -14z m-270 -178 c28
-12 64 -35 81 -49 28 -23 40 -26 101 -26 67 1 118 -13 154 -43 34 -27 69 -92
75 -137 l6 -47 97 0 c89 1 101 -1 138 -26 56 -37 98 -121 88 -177 -9 -54 -55
-115 -107 -143 -43 -23 -45 -23 -538 -26 l-495 -3 -44 23 c-102 53 -140 162
-87 252 14 24 46 57 70 73 38 25 45 34 50 73 28 201 242 335 411 256z"/>
<path d="M1567 1484 c-11 -12 -8 -59 5 -72 7 -7 45 -12 99 -12 96 0 113 9 107
57 l-3 28 -101 3 c-55 1 -103 0 -107 -4z"/>
</g>
</svg>
