<?xml version="1.0" standalone="no"?>
<!DOCTYPE svg PUBLIC "-//W3C//DTD SVG 20010904//EN"
 "http://www.w3.org/TR/2001/REC-SVG-20010904/DTD/svg10.dtd">
<svg version="1.0" xmlns="http://www.w3.org/2000/svg"
 width="200.000000pt" height="200.000000pt" viewBox="0 0 200.000000 200.000000"
 preserveAspectRatio="xMidYMid meet">
<metadata>
Created by potrace 1.15, written by Peter Selinger 2001-2017
</metadata>
<g transform="translate(0.000000,200.000000) scale(0.100000,-0.100000)"
fill="#000000" stroke="none">
<path d="M1259 1901 c-123 -39 -229 -124 -294 -235 -37 -63 -65 -166 -65 -239
0 -51 -2 -58 -17 -53 -49 14 -115 17 -168 7 -160 -30 -286 -142 -336 -300 -14
-45 -29 -70 -63 -101 -61 -56 -97 -131 -97 -202 -2 -103 17 -152 84 -225 76
-82 94 -88 320 -91 181 -3 198 -5 192 -20 -4 -9 -18 -47 -30 -85 l-24 -67 75
0 c67 0 75 -2 70 -17 -3 -10 -17 -56 -31 -101 -15 -46 -25 -86 -22 -88 2 -2
68 65 147 149 l144 152 -72 5 -72 5 20 32 20 33 224 0 c202 0 231 2 280 20
190 72 263 297 147 457 l-29 41 23 10 c27 12 95 71 95 82 0 4 -37 10 -82 13
-148 9 -275 79 -362 197 -65 88 -88 156 -94 272 -5 121 18 206 82 302 l44 66
-26 -1 c-15 0 -52 -8 -83 -18z m-359 -656 c19 -10 52 -31 73 -48 34 -26 43
-29 85 -23 123 16 225 -64 247 -192 l7 -44 52 8 c105 15 166 -4 224 -71 38
-42 46 -70 40 -135 -7 -65 -45 -115 -114 -147 l-52 -24 -499 3 -498 3 -38 23
c-38 24 -80 85 -91 135 -15 62 23 127 117 204 17 13 27 31 27 47 0 45 40 133
82 180 38 44 91 78 148 97 40 13 152 4 190 -16z"/>
<path d="M585 1821 c-28 -57 -28 -57 -99 -66 l-49 -7 45 -46 c39 -41 44 -51
37 -77 -3 -16 -7 -42 -8 -57 l-1 -28 53 26 53 26 53 -27 c29 -14 54 -25 56
-23 2 2 -2 30 -7 62 l-11 60 44 37 c24 21 41 40 38 43 -3 3 -30 9 -60 13 -51
8 -55 10 -79 55 -14 26 -29 50 -32 54 -4 3 -18 -17 -33 -45z"/>
<path d="M336 1471 c-15 -33 -24 -40 -57 -45 -46 -7 -48 -14 -13 -47 22 -21
25 -30 20 -67 l-6 -42 41 20 40 21 36 -21 c20 -11 37 -20 38 -18 2 2 0 22 -5
46 -7 39 -5 44 21 63 39 28 36 38 -12 45 -37 6 -44 12 -57 46 -8 21 -18 38
-22 38 -4 0 -15 -17 -24 -39z"/>
</g>
</svg>
