<?xml version="1.0" standalone="no"?>
<!DOCTYPE svg PUBLIC "-//W3C//DTD SVG 20010904//EN"
 "http://www.w3.org/TR/2001/REC-SVG-20010904/DTD/svg10.dtd">
<svg version="1.0" xmlns="http://www.w3.org/2000/svg"
 width="200.000000pt" height="200.000000pt" viewBox="0 0 200.000000 200.000000"
 preserveAspectRatio="xMidYMid meet">
<metadata>
Created by potrace 1.15, written by Peter Selinger 2001-2017
</metadata>
<g transform="translate(0.000000,200.000000) scale(0.100000,-0.100000)"
fill="#000000" stroke="none">
<path d="M707 1780 c-97 -25 -205 -105 -254 -187 -14 -24 -34 -71 -44 -105
-15 -47 -29 -69 -64 -100 -172 -151 -110 -436 109 -503 36 -11 97 -15 218 -15
92 0 168 -4 168 -8 0 -4 -22 -75 -50 -157 -27 -82 -50 -155 -50 -162 0 -10 21
-13 80 -13 44 0 80 -2 80 -4 0 -3 -22 -73 -50 -158 -27 -84 -47 -154 -46 -156
5 -5 386 429 386 439 0 5 -43 9 -95 9 -52 0 -95 3 -95 6 0 3 26 50 57 104 l58
98 205 4 c184 3 210 5 251 24 64 30 126 88 157 148 35 69 38 180 5 246 -49 99
-150 169 -259 178 -59 4 -61 5 -74 41 -7 19 -38 61 -69 92 -65 65 -124 89
-216 89 -48 0 -66 4 -79 19 -9 10 -44 31 -78 46 -67 30 -184 42 -251 25z m199
-129 c23 -11 59 -35 80 -54 37 -32 42 -34 85 -28 66 10 133 -9 176 -50 41 -39
58 -75 68 -141 4 -27 8 -48 9 -48 0 0 17 5 36 10 139 42 268 -30 278 -156 5
-65 -23 -121 -82 -161 l-41 -28 -495 -3 c-272 -2 -510 0 -528 3 -37 7 -96 55
-118 96 -7 15 -14 50 -14 77 0 60 26 102 93 152 36 27 47 41 47 62 0 80 88
216 165 255 72 38 175 44 241 14z"/>
</g>
</svg>
