<?xml version="1.0" standalone="no"?>
<!DOCTYPE svg PUBLIC "-//W3C//DTD SVG 20010904//EN"
 "http://www.w3.org/TR/2001/REC-SVG-20010904/DTD/svg10.dtd">
<svg version="1.0" xmlns="http://www.w3.org/2000/svg"
 width="200.000000pt" height="200.000000pt" viewBox="0 0 200.000000 200.000000"
 preserveAspectRatio="xMidYMid meet">
<metadata>
Created by potrace 1.15, written by Peter Selinger 2001-2017
</metadata>
<g transform="translate(0.000000,200.000000) scale(0.100000,-0.100000)"
fill="#000000" stroke="none">
<path d="M470 1715 c-88 -28 -120 -60 -120 -123 0 -123 295 -264 705 -338 143
-26 431 -26 497 -1 91 35 122 108 75 178 -71 107 -405 235 -738 284 -133 19
-357 19 -419 0z m465 -124 c270 -50 563 -160 582 -218 7 -20 -45 -28 -182 -27
-189 2 -404 42 -611 115 -101 35 -214 92 -239 119 -16 18 -15 19 27 29 63 15
296 5 423 -18z"/>
<path d="M446 1314 c-44 -43 1 -96 139 -163 210 -103 506 -160 760 -148 200
10 265 30 265 82 0 12 -9 30 -20 40 -19 17 -27 18 -103 7 -128 -19 -347 -15
-479 7 -176 31 -354 96 -463 170 -36 25 -78 27 -99 5z"/>
<path d="M436 1094 c-9 -8 -16 -28 -16 -44 0 -25 10 -36 60 -70 91 -62 213
-117 325 -146 91 -24 118 -27 293 -28 181 -1 194 0 208 18 19 27 18 60 -4 79
-16 14 -43 17 -173 17 -85 0 -183 5 -219 11 -102 16 -223 62 -324 123 -97 59
-124 66 -150 40z"/>
<path d="M451 866 c-7 -8 -11 -29 -9 -48 3 -28 13 -39 79 -83 107 -72 187 -97
327 -103 98 -4 115 -2 132 13 22 20 25 46 10 76 -9 16 -22 19 -83 19 -134 0
-258 40 -348 111 -40 32 -89 38 -108 15z"/>
<path d="M608 609 c-26 -15 -24 -73 5 -99 46 -44 117 -72 199 -78 87 -5 118 9
118 55 0 39 -34 63 -89 63 -58 0 -105 15 -147 47 -33 25 -59 28 -86 12z"/>
<path d="M727 382 c-25 -28 -20 -57 14 -86 40 -34 122 -38 139 -7 24 46 7 75
-59 98 -50 18 -75 16 -94 -5z"/>
</g>
</svg>
