<?xml version="1.0" standalone="no"?>
<!DOCTYPE svg PUBLIC "-//W3C//DTD SVG 20010904//EN"
 "http://www.w3.org/TR/2001/REC-SVG-20010904/DTD/svg10.dtd">
<svg version="1.0" xmlns="http://www.w3.org/2000/svg"
 width="200.000000pt" height="200.000000pt" viewBox="0 0 200.000000 200.000000"
 preserveAspectRatio="xMidYMid meet">
<metadata>
Created by potrace 1.15, written by Peter Selinger 2001-2017
</metadata>
<g transform="translate(0.000000,200.000000) scale(0.100000,-0.100000)"
fill="#000000" stroke="none">
<path d="M1430 1644 c-87 -38 -146 -114 -157 -201 -7 -67 7 -93 52 -93 38 0
65 28 65 68 0 55 53 113 117 126 45 10 117 -23 143 -66 42 -69 14 -163 -60
-200 -32 -17 -86 -18 -691 -18 -623 0 -657 -1 -672 -18 -23 -25 -21 -58 3 -82
20 -20 28 -21 693 -18 l672 3 54 30 c118 65 167 200 118 327 -22 58 -98 129
-155 146 -54 16 -140 14 -182 -4z"/>
<path d="M230 1040 c-11 -11 -20 -29 -20 -40 0 -11 9 -29 20 -40 19 -19 33
-20 466 -20 288 0 452 4 465 10 14 8 19 21 19 50 0 29 -5 42 -19 50 -13 6
-177 10 -465 10 -433 0 -447 -1 -466 -20z"/>
<path d="M230 840 c-25 -25 -26 -62 -2 -83 17 -15 64 -17 473 -17 512 0 502 1
546 -76 28 -49 29 -76 2 -130 -26 -55 -89 -89 -146 -78 -52 10 -109 67 -118
119 -9 58 -18 70 -57 73 -46 4 -62 -16 -59 -76 2 -62 33 -123 86 -170 104 -92
272 -81 364 23 46 53 61 94 61 170 0 107 -43 181 -132 231 l-53 29 -472 3
c-464 3 -472 3 -493 -18z"/>
</g>
</svg>
